{
  "accessors": [
    {
      "bufferView": 2,
      "componentType": 5126,
      "count": 65532,
      "max": [
        0.3423675298690796,
        0.6127563118934631,
        0.23885786533355713
      ],
      "min": [
        -0.325426310300827,
        -0.07568484544754028,
        0.2188340425491333
      ],
      "type": "VEC3"
    },
    {
      "bufferView": 2,
      "byteOffset": 786384,
      "componentType": 5126,
      "count": 65532,
      "max": [
        0.9994977712631226,
        0.9998251795768738,
        1.0
      ],
      "min": [
        -0.999755859375,
        -0.9983918070793152,
        -0.9999999403953552
      ],
      "type": "VEC3"
    },
    {
      "bufferView": 1,
      "componentType": 5126,
      "count": 65532,
      "max": [
        0.9996656179428101,
        0.9958494901657104
      ],
      "min": [
        0.000244140625,
        0.00027658476028591394
      ],
      "type": "VEC2"
    },
    {
      "bufferView": 1,
      "byteOffset": 524256,
      "componentType": 5126,
      "count": 65532,
      "max": [
        0.9996656179428101,
        0.9958494901657104
      ],
      "min": [
        0.000244140625,
        0.00027658476028591394
      ],
      "type": "VEC2"
    },
    {
      "bufferView": 0,
      "componentType": 5125,
      "count": 307788,
      "type": "SCALAR"
    },
    {
      "bufferView": 2,
      "byteOffset": 1572768,
      "componentType": 5126,
      "count": 65534,
      "max": [
        0.3303104341030121,
        0.1608399599790573,
        0.23885786533355713
      ],
      "min": [
        -0.3269420564174652,
        -0.15396860241889954,
        0.21880504488945007
      ],
      "type": "VEC3"
    },
    {
      "bufferView": 2,
      "byteOffset": 2359176,
      "componentType": 5126,
      "count": 65534,
      "max": [
        0.9906238913536072,
        0.999652087688446,
        1.0
      ],
      "min": [
        -0.9994484186172485,
        -0.9998201131820679,
        -0.9999999403953552
      ],
      "type": "VEC3"
    },
    {
      "bufferView": 1,
      "byteOffset": 1048512,
      "componentType": 5126,
      "count": 65534,
      "max": [
        0.9995949864387512,
        0.9715878367424011
      ],
      "min": [
        0.000244140625,
        0.000246842042542994
      ],
      "type": "VEC2"
    },
    {
      "bufferView": 1,
      "byteOffset": 1572784,
      "componentType": 5126,
      "count": 65534,
      "max": [
        0.9995949864387512,
        0.9715878367424011
      ],
      "min": [
        0.000244140625,
        0.000246842042542994
      ],
      "type": "VEC2"
    },
    {
      "bufferView": 0,
      "byteOffset": 1231152,
      "componentType": 5125,
      "count": 307059,
      "type": "SCALAR"
    },
    {
      "bufferView": 2,
      "byteOffset": 3145584,
      "componentType": 5126,
      "count": 65532,
      "max": [
        0.3423675298690796,
        0.18473762273788452,
        0.23885786533355713
      ],
      "min": [
        -0.3274582326412201,
        -0.15382733941078186,
        0.21997061371803284
      ],
      "type": "VEC3"
    },
    {
      "bufferView": 2,
      "byteOffset": 3931968,
      "componentType": 5126,
      "count": 65532,
      "max": [
        0.9988410472869873,
        0.9995876550674438,
        1.0
      ],
      "min": [
        -0.999755859375,
        -0.9999707341194153,
        -0.9999999403953552
      ],
      "type": "VEC3"
    },
    {
      "bufferView": 1,
      "byteOffset": 2097056,
      "componentType": 5126,
      "count": 65532,
      "max": [
        0.9997285008430481,
        0.9859325885772705
      ],
      "min": [
        0.000244140625,
        0.0002480937400832772
      ],
      "type": "VEC2"
    },
    {
      "bufferView": 1,
      "byteOffset": 2621312,
      "componentType": 5126,
      "count": 65532,
      "max": [
        0.9997285008430481,
        0.9859325885772705
      ],
      "min": [
        0.000244140625,
        0.0002480937400832772
      ],
      "type": "VEC2"
    },
    {
      "bufferView": 0,
      "byteOffset": 2459388,
      "componentType": 5125,
      "count": 263412,
      "type": "SCALAR"
    },
    {
      "bufferView": 2,
      "byteOffset": 4718352,
      "componentType": 5126,
      "count": 65532,
      "max": [
        0.3423675298690796,
        0.6124693155288696,
        0.23885786533355713
      ],
      "min": [
        -0.2597029209136963,
        -0.15396860241889954,
        0.15199892222881317
      ],
      "type": "VEC3"
    },
    {
      "bufferView": 2,
      "byteOffset": 5504736,
      "componentType": 5126,
      "count": 65532,
      "max": [
        0.9999952912330627,
        0.9997442960739136,
        1.0
      ],
      "min": [
        -0.9999645948410034,
        -0.9999847412109375,
        -0.9999995231628418
      ],
      "type": "VEC3"
    },
    {
      "bufferView": 1,
      "byteOffset": 3145568,
      "componentType": 5126,
      "count": 65532,
      "max": [
        0.9997451901435852,
        0.929206371307373
      ],
      "min": [
        0.000244140625,
        0.00024600757751613855
      ],
      "type": "VEC2"
    },
    {
      "bufferView": 1,
      "byteOffset": 3669824,
      "componentType": 5126,
      "count": 65532,
      "max": [
        0.9997451901435852,
        0.929206371307373
      ],
      "min": [
        0.000244140625,
        0.00024600757751613855
      ],
      "type": "VEC2"
    },
    {
      "bufferView": 0,
      "byteOffset": 3513036,
      "componentType": 5125,
      "count": 274134,
      "type": "SCALAR"
    },
    {
      "bufferView": 2,
      "byteOffset": 6291120,
      "componentType": 5126,
      "count": 65532,
      "max": [
        0.3416397273540497,
        0.5868372321128845,
        0.23885786533355713
      ],
      "min": [
        -0.16977645456790924,
        0.023584574460983276,
        0.1524650901556015
      ],
      "type": "VEC3"
    },
    {
      "bufferView": 2,
      "byteOffset": 7077504,
      "componentType": 5126,
      "count": 65532,
      "max": [
        0.9981962442398071,
        0.99984210729599,
        1.0
      ],
      "min": [
        -0.9997851848602295,
        -0.9984788298606873,
        -0.9999985098838806
      ],
      "type": "VEC3"
    },
    {
      "bufferView": 1,
      "byteOffset": 4194080,
      "componentType": 5126,
      "count": 65532,
      "max": [
        0.9997247457504272,
        0.96884685754776
      ],
      "min": [
        0.000244140625,
        0.00024845136795192957
      ],
      "type": "VEC2"
    },
    {
      "bufferView": 1,
      "byteOffset": 4718336,
      "componentType": 5126,
      "count": 65532,
      "max": [
        0.9997247457504272,
        0.96884685754776
      ],
      "min": [
        0.000244140625,
        0.00024845136795192957
      ],
      "type": "VEC2"
    },
    {
      "bufferView": 0,
      "byteOffset": 4609572,
      "componentType": 5125,
      "count": 283446,
      "type": "SCALAR"
    },
    {
      "bufferView": 2,
      "byteOffset": 7863888,
      "componentType": 5126,
      "count": 65532,
      "max": [
        0.22143715620040894,
        0.3875419497489929,
        0.23885786533355713
      ],
      "min": [
        -0.3246806263923645,
        0.023584574460983276,
        0.1417781263589859
      ],
      "type": "VEC3"
    },
    {
      "bufferView": 2,
      "byteOffset": 8650272,
      "componentType": 5126,
      "count": 65532,
      "max": [
        0.9998447895050049,
        0.99984210729599,
        1.0
      ],
      "min": [
        -0.9998226165771484,
        -0.9998992681503296,
        -0.9999998807907104
      ],
      "type": "VEC3"
    },
    {
      "bufferView": 1,
      "byteOffset": 5242592,
      "componentType": 5126,
      "count": 65532,
      "max": [
        0.9997414946556091,
        0.9958494901657104
      ],
      "min": [
        0.000244140625,
        0.0002590609947219491
      ],
      "type": "VEC2"
    },
    {
      "bufferView": 1,
      "byteOffset": 5766848,
      "componentType": 5126,
      "count": 65532,
      "max": [
        0.9997414946556091,
        0.9958494901657104
      ],
      "min": [
        0.000244140625,
        0.0002590609947219491
      ],
      "type": "VEC2"
    },
    {
      "bufferView": 0,
      "byteOffset": 5743356,
      "componentType": 5125,
      "count": 275808,
      "type": "SCALAR"
    },
    {
      "bufferView": 2,
      "byteOffset": 9436656,
      "componentType": 5126,
      "count": 65532,
      "max": [
        0.030141480267047882,
        0.5178142786026001,
        0.23771555721759796
      ],
      "min": [
        -0.32455411553382874,
        0.07471947371959686,
        0.16848891973495483
      ],
      "type": "VEC3"
    },
    {
      "bufferView": 2,
      "byteOffset": 10223040,
      "componentType": 5126,
      "count": 65532,
      "max": [
        0.99842768907547,
        0.9997179508209229,
        0.9980058670043945
      ],
      "min": [
        -0.9997825026512146,
        -0.9994602203369141,
        -0.9999995231628418
      ],
      "type": "VEC3"
    },
    {
      "bufferView": 1,
      "byteOffset": 6291104,
      "componentType": 5126,
      "count": 65532,
      "max": [
        0.9997074604034424,
        0.9565473794937134
      ],
      "min": [
        0.000244140625,
        0.00025548471603542566
      ],
      "type": "VEC2"
    },
    {
      "bufferView": 1,
      "byteOffset": 6815360,
      "componentType": 5126,
      "count": 65532,
      "max": [
        0.9997074604034424,
        0.9565473794937134
      ],
      "min": [
        0.000244140625,
        0.00025548471603542566
      ],
      "type": "VEC2"
    },
    {
      "bufferView": 0,
      "byteOffset": 6846588,
      "componentType": 5125,
      "count": 325101,
      "type": "SCALAR"
    },
    {
      "bufferView": 2,
      "byteOffset": 11009424,
      "componentType": 5126,
      "count": 65532,
      "max": [
        0.029943443834781647,
        0.5179417133331299,
        0.22682179510593414
      ],
      "min": [
        -0.2843770980834961,
        0.18219280242919922,
        0.14530090987682343
      ],
      "type": "VEC3"
    },
    {
      "bufferView": 2,
      "byteOffset": 11795808,
      "componentType": 5126,
      "count": 65532,
      "max": [
        0.9991050362586975,
        0.9989612102508545,
        0.925554096698761
      ],
      "min": [
        -0.9985241889953613,
        -0.9999864101409912,
        -0.9999992847442627
      ],
      "type": "VEC3"
    },
    {
      "bufferView": 1,
      "byteOffset": 7339616,
      "componentType": 5126,
      "count": 65532,
      "max": [
        0.9996957778930664,
        0.9226073026657104
      ],
      "min": [
        0.000244140625,
        0.00025757087860256433
      ],
      "type": "VEC2"
    },
    {
      "bufferView": 1,
      "byteOffset": 7863872,
      "componentType": 5126,
      "count": 65532,
      "max": [
        0.9996957778930664,
        0.9226073026657104
      ],
      "min": [
        0.000244140625,
        0.00025757087860256433
      ],
      "type": "VEC2"
    },
    {
      "bufferView": 0,
      "byteOffset": 8146992,
      "componentType": 5125,
      "count": 284529,
      "type": "SCALAR"
    },
    {
      "bufferView": 2,
      "byteOffset": 12582192,
      "componentType": 5126,
      "count": 65532,
      "max": [
        0.030794702470302582,
        0.4048895835876465,
        0.22712105512619019
      ],
      "min": [
        -0.2336869239807129,
        0.0556643009185791,
        0.13218410313129425
      ],
      "type": "VEC3"
    },
    {
      "bufferView": 2,
      "byteOffset": 13368576,
      "componentType": 5126,
      "count": 65532,
      "max": [
        0.9988825917243958,
        0.9999566674232483,
        0.9929938316345215
      ],
      "min": [
        -0.9930420517921448,
        -0.9999664425849915,
        -0.9999999403953552
      ],
      "type": "VEC3"
    },
    {
      "bufferView": 1,
      "byteOffset": 8388128,
      "componentType": 5126,
      "count": 65532,
      "max": [
        0.9997119903564453,
        0.929206371307373
      ],
      "min": [
        0.000244140625,
        0.00024481548462063074
      ],
      "type": "VEC2"
    },
    {
      "bufferView": 1,
      "byteOffset": 8912384,
      "componentType": 5126,
      "count": 65532,
      "max": [
        0.9997119903564453,
        0.929206371307373
      ],
      "min": [
        0.000244140625,
        0.00024481548462063074
      ],
      "type": "VEC2"
    },
    {
      "bufferView": 0,
      "byteOffset": 9285108,
      "componentType": 5125,
      "count": 259908,
      "type": "SCALAR"
    },
    {
      "bufferView": 2,
      "byteOffset": 14154960,
      "componentType": 5126,
      "count": 65532,
      "max": [
        0.10862890630960464,
        0.5421594977378845,
        0.23885786533355713
      ],
      "min": [
        -0.3245922923088074,
        0.023584574460983276,
        0.17799457907676697
      ],
      "type": "VEC3"
    },
    {
      "bufferView": 2,
      "byteOffset": 14941344,
      "componentType": 5126,
      "count": 65532,
      "max": [
        0.9999792575836182,
        0.9999220371246338,
        1.0
      ],
      "min": [
        -0.9998538494110107,
        -0.9999864101409912,
        -0.9999997615814209
      ],
      "type": "VEC3"
    },
    {
      "bufferView": 1,
      "byteOffset": 9436640,
      "componentType": 5126,
      "count": 65532,
      "max": [
        0.9997446537017822,
        0.9978026151657104
      ],
      "min": [
        0.000244140625,
        0.0002532197395339608
      ],
      "type": "VEC2"
    },
    {
      "bufferView": 1,
      "byteOffset": 9960896,
      "componentType": 5126,
      "count": 65532,
      "max": [
        0.9997446537017822,
        0.9978026151657104
      ],
      "min": [
        0.000244140625,
        0.0002532197395339608
      ],
      "type": "VEC2"
    },
    {
      "bufferView": 0,
      "byteOffset": 10324740,
      "componentType": 5125,
      "count": 261306,
      "type": "SCALAR"
    },
    {
      "bufferView": 2,
      "byteOffset": 15727728,
      "componentType": 5126,
      "count": 44305,
      "max": [
        0.10862890630960464,
        0.5421594977378845,
        0.23885786533355713
      ],
      "min": [
        -0.3250129818916321,
        0.023584574460983276,
        0.22030848264694214
      ],
      "type": "VEC3"
    },
    {
      "bufferView": 2,
      "byteOffset": 16259388,
      "componentType": 5126,
      "count": 44305,
      "max": [
        0.9999659657478333,
        0.9935740828514099,
        1.0
      ],
      "min": [
        -0.9999116659164429,
        -0.996137797832489,
        -0.9999960660934448
      ],
      "type": "VEC3"
    },
    {
      "bufferView": 1,
      "byteOffset": 10485152,
      "componentType": 5126,
      "count": 44305,
      "max": [
        0.9997450113296509,
        0.995641827583313
      ],
      "min": [
        0.000244140625,
        0.0002533389488235116
      ],
      "type": "VEC2"
    },
    {
      "bufferView": 1,
      "byteOffset": 10839592,
      "componentType": 5126,
      "count": 44305,
      "max": [
        0.9997450113296509,
        0.995641827583313
      ],
      "min": [
        0.000244140625,
        0.0002533389488235116
      ],
      "type": "VEC2"
    },
    {
      "bufferView": 0,
      "byteOffset": 11369964,
      "componentType": 5125,
      "count": 157713,
      "type": "SCALAR"
    }
  ],
  "asset": {
    "extras": {
      "author": "iknowhowtoread (https://sketchfab.com/iknowhowtoread)",
      "license": "CC-BY-4.0 (http://creativecommons.org/licenses/by/4.0/)",
      "source": "https://sketchfab.com/3d-models/anteater-plushie-17c5bc9155ab46f5a8f975b66d44ca0f",
      "title": "Anteater Plushie"
    },
    "generator": "Sketchfab-14.64.0",
    "version": "2.0"
  },
  "bufferViews": [
    {
      "buffer": 0,
      "byteLength": 12000816,
      "name": "floatBufferViews",
      "target": 34963
    },
    {
      "buffer": 0,
      "byteLength": 11194032,
      "byteOffset": 12000816,
      "byteStride": 8,
      "name": "floatBufferViews",
      "target": 34962
    },
    {
      "buffer": 0,
      "byteLength": 16791048,
      "byteOffset": 23194848,
      "byteStride": 12,
      "name": "floatBufferViews",
      "target": 34962
    }
  ],
  "buffers": [
    {
      "byteLength": 39985896,
      "uri": "scene.bin"
    }
  ],
  "extensionsUsed": [
    "KHR_materials_unlit"
  ],
  "images": [
    {
      "uri": "textures/tex_u1_v1_baseColor.jpeg"
    }
  ],
  "materials": [
    {
      "doubleSided": true,
      "extensions": {
        "KHR_materials_unlit": {}
      },
      "name": "tex_u1_v1",
      "pbrMetallicRoughness": {
        "baseColorTexture": {
          "index": 0
        },
        "metallicFactor": 0.0
      }
    }
  ],
  "meshes": [
    {
      "name": "model_tex_u1_v1_0",
      "primitives": [
        {
          "attributes": {
            "NORMAL": 1,
            "POSITION": 0,
            "TEXCOORD_0": 2,
            "TEXCOORD_1": 3
          },
          "indices": 4,
          "material": 0,
          "mode": 4
        }
      ]
    },
    {
      "name": "model_tex_u1_v1_0",
      "primitives": [
        {
          "attributes": {
            "NORMAL": 6,
            "POSITION": 5,
            "TEXCOORD_0": 7,
            "TEXCOORD_1": 8
          },
          "indices": 9,
          "material": 0,
          "mode": 4
        }
      ]
    },
    {
      "name": "model_tex_u1_v1_0",
      "primitives": [
        {
          "attributes": {
            "NORMAL": 11,
            "POSITION": 10,
            "TEXCOORD_0": 12,
            "TEXCOORD_1": 13
          },
          "indices": 14,
          "material": 0,
          "mode": 4
        }
      ]
    },
    {
      "name": "model_tex_u1_v1_0",
      "primitives": [
        {
          "attributes": {
            "NORMAL": 16,
            "POSITION": 15,
            "TEXCOORD_0": 17,
            "TEXCOORD_1": 18
          },
          "indices": 19,
          "material": 0,
          "mode": 4
        }
      ]
    },
    {
      "name": "model_tex_u1_v1_0",
      "primitives": [
        {
          "attributes": {
            "NORMAL": 21,
            "POSITION": 20,
            "TEXCOORD_0": 22,
            "TEXCOORD_1": 23
          },
          "indices": 24,
          "material": 0,
          "mode": 4
        }
      ]
    },
    {
      "name": "model_tex_u1_v1_0",
      "primitives": [
        {
          "attributes": {
            "NORMAL": 26,
            "POSITION": 25,
            "TEXCOORD_0": 27,
            "TEXCOORD_1": 28
          },
          "indices": 29,
          "material": 0,
          "mode": 4
        }
      ]
    },
    {
      "name": "model_tex_u1_v1_0",
      "primitives": [
        {
          "attributes": {
            "NORMAL": 31,
            "POSITION": 30,
            "TEXCOORD_0": 32,
            "TEXCOORD_1": 33
          },
          "indices": 34,
          "material": 0,
          "mode": 4
        }
      ]
    },
    {
      "name": "model_tex_u1_v1_0",
      "primitives": [
        {
          "attributes": {
            "NORMAL": 36,
            "POSITION": 35,
            "TEXCOORD_0": 37,
            "TEXCOORD_1": 38
          },
          "indices": 39,
          "material": 0,
          "mode": 4
        }
      ]
    },
    {
      "name": "model_tex_u1_v1_0",
      "primitives": [
        {
          "attributes": {
            "NORMAL": 41,
            "POSITION": 40,
            "TEXCOORD_0": 42,
            "TEXCOORD_1": 43
          },
          "indices": 44,
          "material": 0,
          "mode": 4
        }
      ]
    },
    {
      "name": "model_tex_u1_v1_0",
      "primitives": [
        {
          "attributes": {
            "NORMAL": 46,
            "POSITION": 45,
            "TEXCOORD_0": 47,
            "TEXCOORD_1": 48
          },
          "indices": 49,
          "material": 0,
          "mode": 4
        }
      ]
    },
    {
      "name": "model_tex_u1_v1_0",
      "primitives": [
        {
          "attributes": {
            "NORMAL": 51,
            "POSITION": 50,
            "TEXCOORD_0": 52,
            "TEXCOORD_1": 53
          },
          "indices": 54,
          "material": 0,
          "mode": 4
        }
      ]
    }
  ],
  "nodes": [
    {
      "children": [
        1
      ],
      "matrix": [
        1.0458024740219116,
        0.0,
        0.0,
        0.0,
        0.0,
        2.322147971738157e-16,
        -1.0458024740219116,
        0.0,
        0.0,
        1.0458024740219116,
        2.322147971738157e-16,
        0.0,
        0.0,
        0.0,
        0.0,
        1.0
      ],
      "name": "Sketchfab_model"
    },
    {
      "children": [
        2
      ],
      "matrix": [
        1.0,
        0.0,
        0.0,
        0.0,
        0.0,
        -1.0,
        0.0,
        0.0,
        0.0,
        0.0,
        -1.0,
        0.0,
        0.0,
        0.0,
        0.0,
        1.0
      ],
      "name": "model.fbx"
    },
    {
      "children": [
        3
      ],
      "name": "RootNode"
    },
    {
      "children": [
        4,
        5,
        6,
        7,
        8,
        9,
        10,
        11,
        12,
        13,
        14
      ],
      "name": "model"
    },
    {
      "mesh": 0,
      "name": "model_tex_u1_v1_0"
    },
    {
      "mesh": 1,
      "name": "model_tex_u1_v1_0"
    },
    {
      "mesh": 2,
      "name": "model_tex_u1_v1_0"
    },
    {
      "mesh": 3,
      "name": "model_tex_u1_v1_0"
    },
    {
      "mesh": 4,
      "name": "model_tex_u1_v1_0"
    },
    {
      "mesh": 5,
      "name": "model_tex_u1_v1_0"
    },
    {
      "mesh": 6,
      "name": "model_tex_u1_v1_0"
    },
    {
      "mesh": 7,
      "name": "model_tex_u1_v1_0"
    },
    {
      "mesh": 8,
      "name": "model_tex_u1_v1_0"
    },
    {
      "mesh": 9,
      "name": "model_tex_u1_v1_0"
    },
    {
      "mesh": 10,
      "name": "model_tex_u1_v1_0"
    }
  ],
  "samplers": [
    {
      "magFilter": 9729,
      "minFilter": 9987,
      "wrapS": 10497,
      "wrapT": 10497
    }
  ],
  "scene": 0,
  "scenes": [
    {
      "name": "Sketchfab_Scene",
      "nodes": [
        0
      ]
    }
  ],
  "textures": [
    {
      "sampler": 0,
      "source": 0
    }
  ]
}
